<svg width="16" height="24" viewBox="0 0 16 24" fill="none" xmlns="http://www.w3.org/2000/svg">
<path d="M9.94793 1.25098H3.28126C2.83923 1.25098 2.41531 1.47047 2.10275 1.86117C1.79019 2.25187 1.61459 2.78178 1.61459 3.33431V20.001C1.61459 20.5535 1.79019 21.0834 2.10275 21.4741C2.41531 21.8648 2.83923 22.0843 3.28126 22.0843H13.2813C13.7233 22.0843 14.1472 21.8648 14.4598 21.4741C14.7723 21.0834 14.9479 20.5535 14.9479 20.001V7.50098L9.94793 1.25098Z" stroke="white" stroke-width="2" stroke-linecap="round" stroke-linejoin="round"/>
<path d="M9.94791 1.25098V7.50098H14.9479" stroke="white" stroke-width="2" stroke-linecap="round" stroke-linejoin="round"/>
<path d="M11.6146 12.7092H4.94791" stroke="white" stroke-width="2" stroke-linecap="round" stroke-linejoin="round"/>
<path d="M11.6146 16.876H4.94791" stroke="white" stroke-width="2" stroke-linecap="round" stroke-linejoin="round"/>
<path d="M6.61457 8.5426H5.78124H4.94791" stroke="white" stroke-width="2" stroke-linecap="round" stroke-linejoin="round"/>
</svg>
