<svg width="25" height="25" viewBox="0 0 25 25" fill="none" xmlns="http://www.w3.org/2000/svg">
<path d="M15.3203 10.651C15.3203 10.1354 15.7891 9.66663 16.3047 9.66663C16.8672 9.66663 17.3359 10.1354 17.3359 10.651C17.3359 11.2135 16.8672 11.6823 16.3047 11.6823C15.7891 11.6823 15.3203 11.2135 15.3203 10.651ZM8.33594 9.66663H13.3047V7.651H8.33594V9.66663ZM22.3047 8.16663V15.151L19.4922 16.0885L17.8047 21.6666H12.3203V19.651H10.3047V21.6666H4.82031C4.82031 21.6666 2.33594 13.2291 2.33594 10.1823C2.33594 7.13538 4.77344 4.651 7.82031 4.651H12.8359C13.7266 3.47913 15.1797 2.68225 16.8203 2.68225C17.6641 2.68225 18.3203 3.3385 18.3203 4.18225C18.3203 4.36975 18.2734 4.55725 18.1797 4.74475C18.0391 5.07288 17.9453 5.49475 17.8984 5.91663L20.1484 8.16663H22.3047ZM20.3359 10.1823H19.3047L15.8359 6.66663C15.8359 6.01038 15.9297 5.35413 16.0703 4.74475C15.1328 5.026 14.3359 5.72913 14.0078 6.66663H7.82031C5.89844 6.66663 4.30469 8.2135 4.30469 10.1823C4.30469 12.0573 5.52344 16.8385 6.32031 19.651H8.33594V17.6823H14.3359V19.651H16.3516L17.8984 14.4948L20.3359 13.6979V10.1823Z" fill="white"/>
</svg>
