<svg width="41" height="41" viewBox="0 0 41 41" fill="none" xmlns="http://www.w3.org/2000/svg">
<path d="M20.3198 0.333008C24.0846 0.333008 27.7728 1.39558 30.9605 3.39852C34.1482 5.40147 36.7058 8.26345 38.3392 11.6553C39.9727 15.0472 40.6156 18.8313 40.1941 22.5723C39.7726 26.3133 38.3037 29.8594 35.9565 32.8028C33.6092 35.7462 30.4789 37.9673 26.9254 39.2107C23.372 40.4541 19.5397 40.6693 15.8694 39.8316C12.1991 38.9938 8.83976 37.1372 6.17771 34.4751C3.51566 31.8131 1.65902 28.4537 0.821289 24.7834L4.721 23.8933C5.39118 26.8296 6.8765 29.5171 9.00614 31.6467C11.1358 33.7764 13.8233 35.2617 16.7595 35.9319C19.6958 36.602 22.7616 36.4299 25.6043 35.4351C28.4471 34.4404 30.9513 32.6635 32.8292 30.3088C34.707 27.9542 35.882 25.1173 36.2192 22.1244C36.5565 19.1316 36.0421 16.1044 34.7353 13.3909C33.4286 10.6774 31.3825 8.38778 28.8324 6.78542C26.2822 5.18306 23.3316 4.33301 20.3198 4.33301" fill="#FC185A"/>
</svg>
