<svg width="25" height="25" viewBox="0 0 25 25" fill="none" xmlns="http://www.w3.org/2000/svg">
<path d="M12.3203 2.68225C6.78906 2.68225 2.33594 7.13538 2.33594 12.6666C2.33594 18.1979 6.78906 22.651 12.3203 22.651C17.8516 22.651 22.3047 18.1979 22.3047 12.6666C22.3047 7.13538 17.8516 2.68225 12.3203 2.68225ZM12.3203 20.6823C7.91406 20.6823 4.30469 17.0729 4.30469 12.6666C4.30469 8.26038 7.91406 4.651 12.3203 4.651C16.7266 4.651 20.3359 8.26038 20.3359 12.6666C20.3359 17.0729 16.7266 20.6823 12.3203 20.6823ZM13.2109 11.776C11.4297 11.1666 10.5859 10.7916 10.5859 9.85413C10.5859 8.86975 11.6641 8.49475 12.3672 8.49475C13.6797 8.49475 14.1484 9.47913 14.2891 9.80725L15.8828 9.151C15.6953 8.72913 15.0391 7.22913 13.2109 6.901V5.68225H11.4297V6.94788C8.85156 7.4635 8.85156 9.76038 8.85156 9.901C8.85156 12.151 11.1016 12.8073 12.1797 13.1823C13.7734 13.7448 14.4766 14.2604 14.4766 15.2448C14.4766 16.3698 13.3984 16.8385 12.4609 16.8385C10.6797 16.8385 10.1172 14.9635 10.0703 14.7291L8.42969 15.4323C9.03906 17.5885 10.6797 18.1979 11.4297 18.3854V19.651H13.2109V18.4323C13.7266 18.3385 16.2109 17.8229 16.2109 15.1979C16.2109 13.8385 15.6016 12.6198 13.2109 11.776Z" fill="white"/>
</svg>
