<svg width="25" height="25" viewBox="0 0 25 25" fill="none" xmlns="http://www.w3.org/2000/svg">
<path d="M20.3359 6.66663H18.1328C18.2734 6.3385 18.3203 6.01038 18.3203 5.68225C18.3203 3.99475 16.9609 2.68225 15.3203 2.68225C14.2891 2.68225 13.3516 3.19788 12.8359 3.99475L12.3203 4.69788L11.8047 3.99475C11.2891 3.19788 10.3516 2.68225 9.32031 2.68225C7.67969 2.68225 6.32031 3.99475 6.32031 5.68225C6.32031 6.01038 6.36719 6.3385 6.50781 6.66663H4.30469C3.22656 6.66663 2.33594 7.55725 2.33594 8.68225V19.651C2.33594 20.776 3.22656 21.6666 4.30469 21.6666H20.3359C21.4141 21.6666 22.3047 20.776 22.3047 19.651V8.68225C22.3047 7.55725 21.4141 6.66663 20.3359 6.66663ZM15.3203 4.651C15.8828 4.651 16.3047 5.11975 16.3047 5.68225C16.3047 6.19788 15.8828 6.66663 15.3203 6.66663C14.7578 6.66663 14.3359 6.19788 14.3359 5.68225C14.3359 5.11975 14.7578 4.651 15.3203 4.651ZM9.32031 4.651C9.88281 4.651 10.3047 5.11975 10.3047 5.68225C10.3047 6.19788 9.88281 6.66663 9.32031 6.66663C8.75781 6.66663 8.33594 6.19788 8.33594 5.68225C8.33594 5.11975 8.75781 4.651 9.32031 4.651ZM20.3359 19.651H4.30469V17.6823H20.3359V19.651ZM20.3359 14.6823H4.30469V8.68225H9.41406L7.30469 11.4948L8.94531 12.6666L12.3203 8.07288L15.6953 12.6666L17.3359 11.4948L15.2266 8.68225H20.3359V14.6823Z" fill="white"/>
</svg>
