<svg width="41" height="41" viewBox="0 0 41 41" fill="none" xmlns="http://www.w3.org/2000/svg">
<path d="M20.3198 0.333374C24.0846 0.333374 27.7728 1.39594 30.9605 3.39889C34.1482 5.40184 36.7058 8.26381 38.3392 11.6557C39.9727 15.0476 40.6156 18.8316 40.1941 22.5727C39.7726 26.3137 38.3037 29.8598 35.9565 32.8032C33.6092 35.7465 30.4789 37.9676 26.9254 39.211C23.372 40.4544 19.5397 40.6697 15.8694 39.8319C12.1991 38.9942 8.83976 37.1376 6.17771 34.4755C3.51566 31.8135 1.65902 28.4541 0.821289 24.7838L4.721 23.8937C5.39118 26.83 6.8765 29.5174 9.00614 31.6471C11.1358 33.7767 13.8233 35.262 16.7595 35.9322C19.6958 36.6024 22.7616 36.4302 25.6043 35.4355C28.4471 34.4408 30.9513 32.6639 32.8292 30.3092C34.707 27.9545 35.882 25.1176 36.2192 22.1248C36.5565 19.132 36.0421 16.1047 34.7353 13.3912C33.4286 10.6777 31.3825 8.38814 28.8324 6.78579C26.2822 5.18343 23.3316 4.33337 20.3198 4.33337" fill="#FD7E14"/>
</svg>
