<svg width="46" height="49" viewBox="0 0 46 49" fill="none" xmlns="http://www.w3.org/2000/svg">
<g clip-path="url(#clip0_1_896)">
<path d="M44 28.1161C44 26.1837 43.2708 24.5412 41.8125 23.1885C40.3542 21.8359 38.5833 21.1595 36.5 21.1595C34.4167 21.1595 32.6458 21.8359 31.1875 23.1885C29.7292 24.5412 29 26.1837 29 28.1161C29 29.0822 29.4167 30.4349 30.25 32.174C30.6667 33.1402 31.5 34.4929 32.75 36.232V36.5219H11.5C10.4583 36.5219 9.67708 36.232 9.15625 35.6523C8.63542 35.0726 8.27083 34.4929 8.0625 33.9132C7.85417 33.3335 7.85417 32.7054 8.0625 32.0291C8.27083 31.3528 8.73958 30.7731 9.46875 30.29C10.1979 29.8069 11.0833 29.5653 12.125 29.5653H19.3125C21.3958 29.5653 23.1667 28.7924 24.625 27.2465C25.6667 26.2803 26.3438 25.1692 26.6562 23.9132C26.9688 22.6571 26.8646 21.3528 26.3438 20.0001C25.8229 18.6475 24.8854 17.5847 23.5312 16.8117C22.1771 16.0388 20.7708 15.6523 19.3125 15.6523H9.625C10.875 13.9132 11.8125 12.3673 12.4375 11.0146C13.4792 9.27549 14 7.92283 14 6.95665C14 5.02428 13.2708 3.38177 11.8125 2.02911C10.3542 0.676453 8.58333 0.00012207 6.5 0.00012207C4.41667 0.00012207 2.64583 0.676453 1.1875 2.02911C-0.270833 3.38177 -1 5.02428 -1 6.95665C-1 8.3093 -0.270833 10.2417 1.1875 12.7537C2.22917 14.4929 3.375 16.1354 4.625 17.6813C4.83333 18.0678 5.09375 18.4059 5.40625 18.6958C5.71875 18.9856 6.08333 19.1306 6.5 19.1306H19C19.8333 19.1306 20.6146 19.3238 21.3438 19.7103C22.0729 20.0967 22.5417 20.6281 22.75 21.3045C22.9583 21.9808 23.0104 22.6571 22.9062 23.3335C22.8021 24.0098 22.3854 24.6378 21.6562 25.2175C20.9271 25.7972 20.1458 26.0871 19.3125 26.0871H11.8125C9.9375 26.0871 8.27083 26.5702 6.8125 27.5364C5.35417 28.5025 4.52083 29.8552 4.3125 31.5943C3.89583 32.7537 3.89583 33.9132 4.3125 35.0726C4.72917 36.232 5.35417 37.1982 6.1875 37.9711C7.64583 39.3238 9.41667 40.0001 11.5 40.0001H36.5C36.9167 40.0001 37.2812 39.9035 37.5938 39.7103C37.9062 39.517 38.0625 39.3238 38.0625 39.1306C39.3125 37.5847 40.5625 35.8455 41.8125 33.9132C43.2708 31.4011 44 29.4687 44 28.1161ZM6.5 3.47839C7.54167 3.47839 8.42708 3.81655 9.15625 4.49288C9.88542 5.1692 10.25 5.89384 10.25 6.66679C10.25 7.43974 9.88542 8.45423 9.15625 9.71027C8.42708 10.9663 7.54167 12.3673 6.5 13.9132C5.45833 12.3673 4.57292 10.918 3.84375 9.56534C3.11458 8.21268 2.75 7.34312 2.75 6.95665C2.75 5.99046 3.11458 5.1692 3.84375 4.49288C4.57292 3.81655 5.45833 3.47839 6.5 3.47839ZM36.5 24.6378C37.5417 24.6378 38.4271 24.976 39.1562 25.6523C39.8854 26.3286 40.25 27.0533 40.25 27.8262C40.25 28.5992 39.8854 29.6136 39.1562 30.8697C38.4271 32.1257 37.5417 33.5267 36.5 35.0726C35.4583 33.7199 34.5729 32.3673 33.8438 31.0146C33.1146 29.662 32.75 28.6958 32.75 28.1161C32.75 27.1499 33.1146 26.3286 33.8438 25.6523C34.5729 24.976 35.4583 24.6378 36.5 24.6378ZM34.625 27.5364C34.625 28.1161 34.7812 28.5508 35.0938 28.8407C35.4062 29.1306 35.8229 29.2755 36.3438 29.2755C36.8646 29.2755 37.3333 29.1306 37.75 28.8407C38.1667 28.5508 38.375 28.1644 38.375 27.6813C38.375 27.1982 38.1667 26.7634 37.75 26.3769C37.3333 25.9905 36.8646 25.7972 36.3438 25.7972C35.8229 25.7972 35.4062 25.9905 35.0938 26.3769C34.7812 26.7634 34.625 27.1499 34.625 27.5364ZM4.625 6.37693C4.625 6.76341 4.83333 7.14988 5.25 7.53635C5.66667 7.92283 6.13542 8.11607 6.65625 8.11607C7.17708 8.11607 7.59375 7.92283 7.90625 7.53635C8.21875 7.14988 8.375 6.7151 8.375 6.23201C8.375 5.74892 8.21875 5.36244 7.90625 5.07259C7.59375 4.78273 7.17708 4.63781 6.65625 4.63781C6.13542 4.63781 5.66667 4.78273 5.25 5.07259C4.83333 5.36244 4.625 5.79723 4.625 6.37693Z" fill="#E12966"/>
</g>
<defs>
<clipPath id="clip0_1_896">
<rect width="45.5" height="48.67" fill="white" transform="matrix(1 0 0 -1 0 48.6705)"/>
</clipPath>
</defs>
</svg>
