<svg width="38" height="38" viewBox="0 0 38 38" fill="none" xmlns="http://www.w3.org/2000/svg">
<path d="M26.0866 -5.34058e-05H11.1675C9.62615 -5.34058e-05 8.18659 0.290768 6.84882 0.87241C5.48196 1.48313 4.29687 2.29016 3.29354 3.29349C2.29021 4.29682 1.48318 5.48191 0.872461 6.84877C0.29082 8.18654 0 9.6261 0 11.1674V35.3782C0 35.9017 0.181763 36.3452 0.545288 36.7087C0.908813 37.0723 1.35231 37.254 1.87579 37.254H26.0866C27.6279 37.254 29.0675 36.9632 30.4053 36.3816C31.7721 35.7708 32.9572 34.9638 33.9605 33.9605C34.9639 32.9572 35.7709 31.7721 36.3816 30.4052C36.9633 29.0674 37.2541 27.6279 37.2541 26.0865V11.1674C37.2541 9.6261 36.9633 8.18654 36.3816 6.84877C35.7709 5.48191 34.9639 4.29682 33.9605 3.29349C32.9572 2.29016 31.7721 1.48313 30.4053 0.87241C29.0675 0.290768 27.6279 -5.34058e-05 26.0866 -5.34058e-05ZM33.5025 26.0865C33.5025 28.1223 32.7754 29.8672 31.3213 31.3213C29.8672 32.7754 28.1223 33.5024 26.0866 33.5024H3.75158V11.1674C3.75158 9.1317 4.47863 7.38678 5.93273 5.93268C7.38684 4.47858 9.13176 3.75153 11.1675 3.75153H26.0866C28.1223 3.75153 29.8672 4.47858 31.3213 5.93268C32.7754 7.38678 33.5025 9.1317 33.5025 11.1674V26.0865ZM16.7512 7.45949H20.5028V22.3349H16.7512V7.45949ZM16.7512 26.0865H20.5028V29.7945H16.7512V26.0865Z" fill="#E12966"/>
</svg>
