<svg width="44" height="41" viewBox="0 0 44 41" fill="none" xmlns="http://www.w3.org/2000/svg">
<path d="M25.763 3.83386H11.4297C10.4793 3.83386 9.56791 4.18505 8.89591 4.81017C8.2239 5.43529 7.84637 6.28314 7.84637 7.1672V33.8339C7.84637 34.7179 8.2239 35.5658 8.89591 36.1909C9.56791 36.816 10.4793 37.1672 11.4297 37.1672H32.9297C33.8801 37.1672 34.7915 36.816 35.4635 36.1909C36.1355 35.5658 36.513 34.7179 36.513 33.8339V13.8339L25.763 3.83386Z" stroke="#E12966" stroke-width="2" stroke-linecap="round" stroke-linejoin="round"/>
<path d="M25.763 3.83386V13.8339H36.513" stroke="#E12966" stroke-width="2" stroke-linecap="round" stroke-linejoin="round"/>
<path d="M29.3463 22.1671H15.013" stroke="#E12966" stroke-width="2" stroke-linecap="round" stroke-linejoin="round"/>
<path d="M29.3463 28.8339H15.013" stroke="#E12966" stroke-width="2" stroke-linecap="round" stroke-linejoin="round"/>
<path d="M18.5963 15.5005H16.8047H15.013" stroke="#E12966" stroke-width="2" stroke-linecap="round" stroke-linejoin="round"/>
</svg>
