<svg width="25" height="24" viewBox="0 0 25 24" fill="none" xmlns="http://www.w3.org/2000/svg">
<path d="M20.3359 2.00562H4.30469C3.32031 2.00562 2.33594 2.89624 2.33594 3.97437V7.02124C2.33594 7.72437 2.75781 8.33374 3.32031 8.70874V20.0056C3.32031 21.0837 4.39844 21.9744 5.33594 21.9744H19.3047C20.2422 21.9744 21.3203 21.0837 21.3203 20.0056V8.70874C21.8828 8.33374 22.3047 7.72437 22.3047 7.02124V3.97437C22.3047 2.89624 21.3203 2.00562 20.3359 2.00562ZM19.3047 20.0056H5.33594V8.98999H19.3047V20.0056ZM20.3359 6.97437H4.30469V3.97437H20.3359V6.97437ZM9.32031 11.99H15.3203V14.0056H9.32031V11.99Z" fill="#A7ACB1"/>
</svg>
