<svg width="25" height="25" viewBox="0 0 25 25" fill="none" xmlns="http://www.w3.org/2000/svg">
<path d="M20.1953 14.8252C21.2734 14.8252 22.1172 13.9814 22.1172 12.9502C22.1172 11.9189 21.2734 11.0752 20.1953 11.0752C19.1641 11.0752 18.3203 11.9189 18.3203 12.9502C18.3203 13.9814 19.1641 14.8252 20.1953 14.8252ZM15.9766 14.6377C16.9141 14.6377 17.6641 13.8877 17.6641 12.9502C17.6641 12.0127 16.9141 11.2627 15.9766 11.2627C15.0391 11.2627 14.2891 12.0127 14.2891 12.9502C14.2891 13.8877 15.0391 14.6377 15.9766 14.6377ZM15.9766 10.3721C16.9141 10.3721 17.6641 9.62207 17.6641 8.68457C17.6641 7.74707 16.9141 6.99707 15.9766 6.99707C15.0391 6.99707 14.2891 7.74707 14.2891 8.68457C14.2891 9.62207 15.0391 10.3721 15.9766 10.3721ZM15.9766 18.9033C16.9141 18.9033 17.6641 18.1533 17.6641 17.2158C17.6641 16.2783 16.9141 15.5283 15.9766 15.5283C15.0391 15.5283 14.2891 16.2783 14.2891 17.2158C14.2891 18.1064 15.0391 18.9033 15.9766 18.9033ZM11.7109 14.4033C12.5547 14.4033 13.2109 13.7471 13.2109 12.9502C13.2109 12.1533 12.5547 11.4971 11.7109 11.4971C10.9141 11.4971 10.2578 12.1533 10.2578 12.9502C10.2578 13.7471 10.9141 14.4033 11.7109 14.4033ZM11.7109 10.1377C12.5547 10.1377 13.2109 9.48145 13.2109 8.68457C13.2109 7.8877 12.5547 7.23145 11.7109 7.23145C10.9141 7.23145 10.2578 7.8877 10.2578 8.68457C10.2578 9.48145 10.9141 10.1377 11.7109 10.1377ZM11.7109 18.6689C12.5547 18.6689 13.2109 18.0127 13.2109 17.2158C13.2109 16.4189 12.5547 15.7627 11.7109 15.7627C10.9141 15.7627 10.2578 16.4189 10.2578 17.2158C10.2578 18.0127 10.9141 18.6689 11.7109 18.6689ZM11.7109 22.9346C12.5547 22.9346 13.2109 22.2783 13.2109 21.4814C13.2109 20.6846 12.5547 20.0283 11.7109 20.0283C10.9141 20.0283 10.2578 20.6846 10.2578 21.4814C10.2578 22.2783 10.9141 22.9346 11.7109 22.9346ZM11.7109 5.87207C12.5547 5.87207 13.2109 5.21582 13.2109 4.41895C13.2109 3.62207 12.5547 2.96582 11.7109 2.96582C10.9141 2.96582 10.2578 3.62207 10.2578 4.41895C10.2578 5.21582 10.9141 5.87207 11.7109 5.87207ZM7.49219 14.2158C8.19531 14.2158 8.75781 13.6533 8.75781 12.9502C8.75781 12.2471 8.14844 11.6846 7.49219 11.6846C6.78906 11.6846 6.22656 12.2471 6.22656 12.9502C6.22656 13.6533 6.78906 14.2158 7.49219 14.2158ZM7.49219 18.4814C8.19531 18.4814 8.75781 17.8721 8.75781 17.2158C8.75781 16.5127 8.14844 15.9502 7.49219 15.9502C6.78906 15.9502 6.22656 16.5127 6.22656 17.2158C6.22656 17.8721 6.78906 18.4814 7.49219 18.4814ZM7.49219 9.9502C8.19531 9.9502 8.75781 9.3877 8.75781 8.73145C8.75781 8.02832 8.14844 7.46582 7.49219 7.46582C6.78906 7.46582 6.22656 8.02832 6.22656 8.73145C6.22656 9.3877 6.78906 9.9502 7.49219 9.9502ZM3.60156 13.9814C4.21094 13.9814 4.67969 13.5127 4.67969 12.9502C4.67969 12.3877 4.21094 11.9189 3.60156 11.9189C3.03906 11.9189 2.57031 12.3877 2.57031 12.9502C2.57031 13.5127 3.03906 13.9814 3.60156 13.9814Z" fill="#A7ACB1"/>
</svg>
