<svg width="23" height="46" viewBox="0 0 23 46" fill="none" xmlns="http://www.w3.org/2000/svg">
<path d="M3.65025 23.165L22.2926 3.57476C22.7139 3.15347 22.9246 2.67951 22.9246 2.15289C22.9246 1.62627 22.7139 1.20497 22.2926 0.889C21.8713 0.573029 21.45 0.415039 21.0287 0.415039C20.6074 0.415039 20.1861 0.62569 19.7648 1.04699L1.12248 20.6373C0.490533 21.2692 0.174561 22.1118 0.174561 23.165C0.174561 24.2183 0.490533 25.0609 1.12248 25.6928L19.7648 45.2831C20.1861 45.7044 20.6074 45.915 21.0287 45.915C21.45 45.915 21.8713 45.7044 22.2926 45.2831C22.7139 44.8618 22.9246 44.3878 22.9246 43.8612C22.9246 43.3346 22.7139 42.966 22.2926 42.7553L3.65025 23.165Z" fill="#D3D7DC"/>
</svg>
