<svg width="25" height="25" viewBox="0 0 25 25" fill="none" xmlns="http://www.w3.org/2000/svg">
<path d="M20.3359 6.65002H18.1328C18.2734 6.3219 18.3203 5.99377 18.3203 5.66565C18.3203 3.97815 16.9609 2.66565 15.3203 2.66565C14.2891 2.66565 13.3516 3.18127 12.8359 3.97815L12.3203 4.68127L11.8047 3.97815C11.2891 3.18127 10.3516 2.66565 9.32031 2.66565C7.67969 2.66565 6.32031 3.97815 6.32031 5.66565C6.32031 5.99377 6.36719 6.3219 6.50781 6.65002H4.30469C3.22656 6.65002 2.33594 7.54065 2.33594 8.66565V19.6344C2.33594 20.7594 3.22656 21.65 4.30469 21.65H20.3359C21.4141 21.65 22.3047 20.7594 22.3047 19.6344V8.66565C22.3047 7.54065 21.4141 6.65002 20.3359 6.65002ZM15.3203 4.6344C15.8828 4.6344 16.3047 5.10315 16.3047 5.66565C16.3047 6.18127 15.8828 6.65002 15.3203 6.65002C14.7578 6.65002 14.3359 6.18127 14.3359 5.66565C14.3359 5.10315 14.7578 4.6344 15.3203 4.6344ZM9.32031 4.6344C9.88281 4.6344 10.3047 5.10315 10.3047 5.66565C10.3047 6.18127 9.88281 6.65002 9.32031 6.65002C8.75781 6.65002 8.33594 6.18127 8.33594 5.66565C8.33594 5.10315 8.75781 4.6344 9.32031 4.6344ZM20.3359 19.6344H4.30469V17.6656H20.3359V19.6344ZM20.3359 14.6656H4.30469V8.66565H9.41406L7.30469 11.4781L8.94531 12.65L12.3203 8.05627L15.6953 12.65L17.3359 11.4781L15.2266 8.66565H20.3359V14.6656Z" fill="#A7ACB1"/>
</svg>
