<svg width="25" height="25" viewBox="0 0 25 25" fill="none" xmlns="http://www.w3.org/2000/svg">
<path d="M19.3047 13.9644H5.33594C4.21094 13.9644 3.32031 14.9019 3.32031 15.98V19.9644C3.32031 21.0894 4.21094 21.98 5.33594 21.98H19.3047C20.4297 21.98 21.3203 21.0894 21.3203 19.9644V15.98C21.3203 14.9019 20.4297 13.9644 19.3047 13.9644ZM19.3047 19.9644H5.33594V15.98H19.3047V19.9644ZM19.3047 3.98004H5.33594C4.21094 3.98004 3.32031 4.87067 3.32031 5.99567V9.98004C3.32031 11.0582 4.21094 11.9957 5.33594 11.9957H19.3047C20.4297 11.9957 21.3203 11.0582 21.3203 9.98004V5.99567C21.3203 4.87067 20.4297 3.98004 19.3047 3.98004ZM19.3047 9.98004H5.33594V5.99567H19.3047V9.98004Z" fill="#A7ACB1"/>
</svg>
