<svg width="25" height="25" viewBox="0 0 25 25" fill="none" xmlns="http://www.w3.org/2000/svg">
<path d="M20.6172 3.9834C20.2891 3.65527 18.6953 3.28027 16.5859 3.28027C13.5391 3.28027 9.50781 4.03027 6.78906 6.74902C2.19531 11.3428 3.22656 19.7803 4.02344 20.5771C4.35156 20.9053 5.94531 21.2803 8.05469 21.2803C11.1016 21.2803 15.1328 20.5303 17.8516 17.8115C22.4453 13.2178 21.4141 4.78027 20.6172 3.9834ZM8.05469 19.2646C6.92969 19.2646 6.03906 19.1709 5.52344 19.0303C5.33594 18.2803 5.24219 16.8271 5.38281 15.2334L9.36719 19.2178C8.85156 19.2646 8.38281 19.2646 8.05469 19.2646ZM16.4453 16.4053C15.1328 17.7178 13.3984 18.4678 11.8047 18.8428L5.75781 12.7959C6.17969 11.1084 6.92969 9.4209 8.19531 8.15527C9.50781 6.84277 11.2422 6.13965 12.8359 5.71777L18.8828 11.7646C18.4609 13.4521 17.7109 15.1396 16.4453 16.4053ZM19.2578 9.37402L15.2734 5.34277C15.7891 5.2959 16.2109 5.2959 16.5859 5.2959C17.7109 5.2959 18.6016 5.38965 19.1172 5.53027C19.3047 6.28027 19.3984 7.7334 19.2578 9.37402ZM8.80469 14.3896L14.4297 8.76465L15.8359 10.1709L10.2109 15.7959L8.80469 14.3896Z" fill="#A7ACB1"/>
</svg>
