<svg width="25" height="25" viewBox="0 0 25 25" fill="none" xmlns="http://www.w3.org/2000/svg">
<path d="M12.3203 2.62585C6.78906 2.62585 2.33594 7.07898 2.33594 12.6102C2.33594 18.1415 6.78906 22.5946 12.3203 22.5946C17.8516 22.5946 22.3047 18.1415 22.3047 12.6102C22.3047 7.07898 17.8516 2.62585 12.3203 2.62585ZM12.3203 20.6259C7.91406 20.6259 4.30469 17.0165 4.30469 12.6102C4.30469 11.4852 4.53906 10.4071 4.96094 9.4696C5.05469 9.56335 5.19531 9.61023 5.33594 9.61023C5.61719 9.61023 5.80469 9.37585 5.80469 9.0946C5.80469 8.86023 5.61719 8.67273 5.38281 8.62585C5.52344 8.3446 5.71094 8.11023 5.89844 7.87585C5.85156 7.9696 5.80469 8.01648 5.80469 8.11023C5.80469 8.39148 6.03906 8.62585 6.32031 8.62585C6.60156 8.62585 6.83594 8.39148 6.83594 8.11023C6.83594 7.82898 6.60156 7.5946 6.32031 7.5946C6.17969 7.5946 6.08594 7.64148 5.99219 7.73523C6.50781 7.07898 7.11719 6.4696 7.82031 6.00085C7.82031 6.00085 7.82031 6.04773 7.82031 6.0946C7.82031 6.37585 8.05469 6.61023 8.33594 6.61023C8.61719 6.61023 8.80469 6.37585 8.80469 6.0946C8.80469 5.86023 8.66406 5.67273 8.42969 5.62585C8.57031 5.5321 8.75781 5.43835 8.89844 5.39148C8.99219 5.5321 9.13281 5.62585 9.32031 5.62585C9.60156 5.62585 9.83594 5.39148 9.83594 5.11023C9.83594 5.06335 9.78906 5.06335 9.78906 5.01648C10.2109 4.87585 10.5859 4.7821 11.0078 4.73523C10.9141 4.82898 10.8203 4.9696 10.8203 5.11023C10.8203 5.39148 11.0547 5.62585 11.3359 5.62585C11.6172 5.62585 11.8047 5.39148 11.8047 5.11023C11.8047 4.92273 11.7109 4.73523 11.5234 4.64148C11.7578 4.64148 12.0391 4.5946 12.3203 4.5946C12.6016 4.5946 12.8828 4.64148 13.1172 4.64148C12.9297 4.73523 12.8359 4.92273 12.8359 5.11023C12.8359 5.39148 13.0234 5.62585 13.3047 5.62585C13.5859 5.62585 13.8203 5.39148 13.8203 5.11023C13.8203 4.9696 13.7266 4.82898 13.6328 4.73523C14.0547 4.7821 14.4297 4.92273 14.8516 5.01648C14.8516 5.06335 14.8047 5.06335 14.8047 5.11023C14.8047 5.39148 15.0391 5.62585 15.3203 5.62585C15.5078 5.62585 15.6484 5.5321 15.7422 5.39148C15.8828 5.43835 16.0703 5.5321 16.2109 5.62585C15.9766 5.67273 15.8359 5.86023 15.8359 6.0946C15.8359 6.37585 16.0234 6.61023 16.3047 6.61023C16.5859 6.61023 16.8203 6.37585 16.8203 6.0946C16.8203 6.04773 16.8203 6.00085 16.7734 6.00085C17.5234 6.4696 18.1328 7.07898 18.6484 7.73523C18.5547 7.64148 18.4609 7.5946 18.3203 7.5946C18.0391 7.5946 17.8047 7.82898 17.8047 8.11023C17.8047 8.39148 18.0391 8.62585 18.3203 8.62585C18.6016 8.62585 18.8359 8.39148 18.8359 8.11023C18.8359 8.01648 18.7891 7.9696 18.7422 7.87585C18.9297 8.11023 19.0703 8.39148 19.2578 8.62585C19.0234 8.67273 18.8359 8.86023 18.8359 9.0946C18.8359 9.37585 19.0234 9.61023 19.3047 9.61023C19.4453 9.61023 19.5859 9.56335 19.6797 9.4696C20.1016 10.4071 20.3359 11.4852 20.3359 12.6102C20.3359 17.0165 16.7266 20.6259 12.3203 20.6259ZM8.05469 13.5946C8.05469 12.9384 8.61719 12.3759 9.32031 12.3759C10.0234 12.3759 10.5859 12.9384 10.5859 13.5946C10.5859 14.2977 10.0234 14.8602 9.32031 14.8602C8.61719 14.8602 8.05469 14.2977 8.05469 13.5946ZM11.8047 6.0946C11.8047 5.81335 12.0391 5.62585 12.3203 5.62585C12.6016 5.62585 12.8359 5.81335 12.8359 6.0946C12.8359 6.37585 12.6016 6.61023 12.3203 6.61023C12.0391 6.61023 11.8047 6.37585 11.8047 6.0946ZM13.8203 6.0946C13.8203 5.81335 14.0547 5.62585 14.3359 5.62585C14.6172 5.62585 14.8047 5.81335 14.8047 6.0946C14.8047 6.37585 14.6172 6.61023 14.3359 6.61023C14.0547 6.61023 13.8203 6.37585 13.8203 6.0946ZM9.83594 6.0946C9.83594 5.81335 10.0234 5.62585 10.3047 5.62585C10.5859 5.62585 10.8203 5.81335 10.8203 6.0946C10.8203 6.37585 10.5859 6.61023 10.3047 6.61023C10.0234 6.61023 9.83594 6.37585 9.83594 6.0946ZM16.8203 7.12585C16.8203 6.8446 17.0547 6.61023 17.3359 6.61023C17.6172 6.61023 17.8047 6.8446 17.8047 7.12585C17.8047 7.4071 17.6172 7.5946 17.3359 7.5946C17.0547 7.5946 16.8203 7.4071 16.8203 7.12585ZM8.80469 7.12585C8.80469 6.8446 9.03906 6.61023 9.32031 6.61023C9.60156 6.61023 9.83594 6.8446 9.83594 7.12585C9.83594 7.4071 9.60156 7.5946 9.32031 7.5946C9.03906 7.5946 8.80469 7.4071 8.80469 7.12585ZM6.83594 7.12585C6.83594 6.8446 7.02344 6.61023 7.30469 6.61023C7.58594 6.61023 7.82031 6.8446 7.82031 7.12585C7.82031 7.4071 7.58594 7.5946 7.30469 7.5946C7.02344 7.5946 6.83594 7.4071 6.83594 7.12585ZM10.8203 7.12585C10.8203 6.8446 11.0547 6.61023 11.3359 6.61023C11.6172 6.61023 11.8047 6.8446 11.8047 7.12585C11.8047 7.4071 11.6172 7.5946 11.3359 7.5946C11.0547 7.5946 10.8203 7.4071 10.8203 7.12585ZM12.8359 7.12585C12.8359 6.8446 13.0234 6.61023 13.3047 6.61023C13.5859 6.61023 13.8203 6.8446 13.8203 7.12585C13.8203 7.4071 13.5859 7.5946 13.3047 7.5946C13.0234 7.5946 12.8359 7.4071 12.8359 7.12585ZM14.8047 7.12585C14.8047 6.8446 15.0391 6.61023 15.3203 6.61023C15.6016 6.61023 15.8359 6.8446 15.8359 7.12585C15.8359 7.4071 15.6016 7.5946 15.3203 7.5946C15.0391 7.5946 14.8047 7.4071 14.8047 7.12585ZM11.8047 8.11023C11.8047 7.82898 12.0391 7.5946 12.3203 7.5946C12.6016 7.5946 12.8359 7.82898 12.8359 8.11023C12.8359 8.39148 12.6016 8.62585 12.3203 8.62585C12.0391 8.62585 11.8047 8.39148 11.8047 8.11023ZM13.8203 8.11023C13.8203 7.82898 14.0547 7.5946 14.3359 7.5946C14.6172 7.5946 14.8047 7.82898 14.8047 8.11023C14.8047 8.39148 14.6172 8.62585 14.3359 8.62585C14.0547 8.62585 13.8203 8.39148 13.8203 8.11023ZM15.8359 8.11023C15.8359 7.82898 16.0234 7.5946 16.3047 7.5946C16.5859 7.5946 16.8203 7.82898 16.8203 8.11023C16.8203 8.39148 16.5859 8.62585 16.3047 8.62585C16.0234 8.62585 15.8359 8.39148 15.8359 8.11023ZM9.83594 8.11023C9.83594 7.82898 10.0234 7.5946 10.3047 7.5946C10.5859 7.5946 10.8203 7.82898 10.8203 8.11023C10.8203 8.39148 10.5859 8.62585 10.3047 8.62585C10.0234 8.62585 9.83594 8.39148 9.83594 8.11023ZM7.82031 8.11023C7.82031 7.82898 8.05469 7.5946 8.33594 7.5946C8.61719 7.5946 8.80469 7.82898 8.80469 8.11023C8.80469 8.39148 8.61719 8.62585 8.33594 8.62585C8.05469 8.62585 7.82031 8.39148 7.82031 8.11023ZM8.80469 9.0946C8.80469 8.81335 9.03906 8.62585 9.32031 8.62585C9.60156 8.62585 9.83594 8.81335 9.83594 9.0946C9.83594 9.37585 9.60156 9.61023 9.32031 9.61023C9.03906 9.61023 8.80469 9.37585 8.80469 9.0946ZM6.83594 9.0946C6.83594 8.81335 7.02344 8.62585 7.30469 8.62585C7.58594 8.62585 7.82031 8.81335 7.82031 9.0946C7.82031 9.37585 7.58594 9.61023 7.30469 9.61023C7.02344 9.61023 6.83594 9.37585 6.83594 9.0946ZM10.8203 9.0946C10.8203 8.81335 11.0547 8.62585 11.3359 8.62585C11.6172 8.62585 11.8047 8.81335 11.8047 9.0946C11.8047 9.37585 11.6172 9.61023 11.3359 9.61023C11.0547 9.61023 10.8203 9.37585 10.8203 9.0946ZM12.8359 9.0946C12.8359 8.81335 13.0234 8.62585 13.3047 8.62585C13.5859 8.62585 13.8203 8.81335 13.8203 9.0946C13.8203 9.37585 13.5859 9.61023 13.3047 9.61023C13.0234 9.61023 12.8359 9.37585 12.8359 9.0946ZM14.8047 9.0946C14.8047 8.81335 15.0391 8.62585 15.3203 8.62585C15.6016 8.62585 15.8359 8.81335 15.8359 9.0946C15.8359 9.37585 15.6016 9.61023 15.3203 9.61023C15.0391 9.61023 14.8047 9.37585 14.8047 9.0946ZM16.8203 9.0946C16.8203 8.81335 17.0547 8.62585 17.3359 8.62585C17.6172 8.62585 17.8047 8.81335 17.8047 9.0946C17.8047 9.37585 17.6172 9.61023 17.3359 9.61023C17.0547 9.61023 16.8203 9.37585 16.8203 9.0946ZM14.0547 13.5946C14.0547 12.9384 14.6172 12.3759 15.3203 12.3759C16.0234 12.3759 16.5859 12.9384 16.5859 13.5946C16.5859 14.2977 16.0234 14.8602 15.3203 14.8602C14.6172 14.8602 14.0547 14.2977 14.0547 13.5946Z" fill="#A7ACB1"/>
</svg>
