<svg width="25" height="25" viewBox="0 0 25 25" fill="none" xmlns="http://www.w3.org/2000/svg">
<path d="M20.6172 4.3233C20.2891 3.99518 18.6953 3.62018 16.5859 3.62018C13.5391 3.62018 9.50781 4.37018 6.78906 7.08893C2.19531 11.6827 3.22656 20.1202 4.02344 20.9171C4.35156 21.2452 5.94531 21.6202 8.05469 21.6202C11.1016 21.6202 15.1328 20.8702 17.8516 18.1514C22.4453 13.5577 21.4141 5.12018 20.6172 4.3233ZM8.05469 19.6046C6.92969 19.6046 6.03906 19.5108 5.52344 19.3702C5.33594 18.6202 5.24219 17.1671 5.38281 15.5733L9.36719 19.5577C8.85156 19.6046 8.38281 19.6046 8.05469 19.6046ZM16.4453 16.7452C15.1328 18.0577 13.3984 18.8077 11.8047 19.1827L5.75781 13.1358C6.17969 11.4483 6.92969 9.7608 8.19531 8.49518C9.50781 7.18268 11.2422 6.47955 12.8359 6.05768L18.8828 12.1046C18.4609 13.7921 17.7109 15.4796 16.4453 16.7452ZM19.2578 9.71393L15.2734 5.68268C15.7891 5.6358 16.2109 5.6358 16.5859 5.6358C17.7109 5.6358 18.6016 5.72955 19.1172 5.87018C19.3047 6.62018 19.3984 8.0733 19.2578 9.71393ZM8.80469 14.7296L14.4297 9.10455L15.8359 10.5108L10.2109 16.1358L8.80469 14.7296Z" fill="#A7ACB1"/>
</svg>
