<svg width="297" height="133" viewBox="0 0 297 133" fill="none" xmlns="http://www.w3.org/2000/svg">
<path d="M95.8697 103.846C91.6357 94.7659 89.7596 84.7652 90.4148 74.7683C91.0701 64.7714 94.2355 55.1011 99.6184 46.6518C105.001 38.2024 112.428 31.2467 121.211 26.428C129.995 21.6093 139.852 19.0831 149.87 19.0831C159.889 19.0831 169.745 21.6093 178.529 26.428C187.312 31.2467 194.739 38.2024 200.122 46.6518C205.505 55.1011 208.67 64.7714 209.326 74.7683C209.981 84.7652 208.105 94.7659 203.871 103.846" stroke="black" stroke-opacity="0.1" stroke-width="4.69654" stroke-linecap="round"/>
<path d="M95.8697 103.846C89.2294 89.6057 88.4827 73.3192 93.7922 58.5314C99.1016 43.7436 110.037 31.6515 124.219 24.8873C138.401 18.1231 154.68 17.2343 169.514 22.4145C184.348 27.5946 196.535 38.4242 203.423 52.5461" stroke="url(#paint0_linear_1_162)" stroke-width="7.00976" stroke-linecap="round"/>
<path d="M117.751 87.6654H115.535L121.944 70.2108H124.126L130.535 87.6654H128.319L123.103 72.9722H122.966L117.751 87.6654ZM118.569 80.8472H127.501V82.7222H118.569V80.8472ZM138.299 87.9381C137.072 87.9381 136.015 87.6483 135.128 87.0688C134.242 86.4892 133.56 85.6909 133.083 84.6739C132.606 83.6569 132.367 82.4949 132.367 81.1881C132.367 79.8586 132.611 78.6853 133.1 77.6682C133.594 76.6455 134.282 75.8472 135.162 75.2733C136.049 74.6938 137.083 74.404 138.265 74.404C139.185 74.404 140.015 74.5745 140.753 74.9154C141.492 75.2563 142.097 75.7336 142.569 76.3472C143.04 76.9608 143.333 77.6767 143.447 78.4949H141.435C141.282 77.8983 140.941 77.3699 140.412 76.9097C139.89 76.4438 139.185 76.2108 138.299 76.2108C137.515 76.2108 136.827 76.4154 136.236 76.8245C135.651 77.2279 135.194 77.7989 134.864 78.5375C134.54 79.2705 134.378 80.1313 134.378 81.1199C134.378 82.1313 134.537 83.012 134.856 83.762C135.18 84.512 135.634 85.0944 136.219 85.5091C136.81 85.9239 137.503 86.1313 138.299 86.1313C138.822 86.1313 139.296 86.0404 139.722 85.8586C140.148 85.6767 140.509 85.4154 140.805 85.0745C141.1 84.7336 141.31 84.3245 141.435 83.8472H143.447C143.333 84.6199 143.052 85.3159 142.603 85.9353C142.16 86.5489 141.572 87.0375 140.839 87.4012C140.111 87.7591 139.265 87.9381 138.299 87.9381ZM152.08 74.5745V76.279H145.296V74.5745H152.08ZM147.273 71.4381H149.285V83.9154C149.285 84.4836 149.367 84.9097 149.532 85.1938C149.702 85.4722 149.918 85.6597 150.18 85.7563C150.447 85.8472 150.728 85.8926 151.023 85.8926C151.245 85.8926 151.427 85.8813 151.569 85.8586C151.711 85.8301 151.824 85.8074 151.91 85.7904L152.319 87.5972C152.182 87.6483 151.992 87.6995 151.748 87.7506C151.503 87.8074 151.194 87.8358 150.819 87.8358C150.251 87.8358 149.694 87.7137 149.148 87.4694C148.609 87.225 148.16 86.8529 147.802 86.3529C147.449 85.8529 147.273 85.2222 147.273 84.4608V71.4381ZM155.106 87.6654V74.5745H157.117V87.6654H155.106ZM156.128 72.3926C155.736 72.3926 155.398 72.2591 155.114 71.9921C154.836 71.725 154.697 71.404 154.697 71.029C154.697 70.654 154.836 70.333 155.114 70.0659C155.398 69.7989 155.736 69.6654 156.128 69.6654C156.52 69.6654 156.856 69.7989 157.134 70.0659C157.418 70.333 157.56 70.654 157.56 71.029C157.56 71.404 157.418 71.725 157.134 71.9921C156.856 72.2591 156.52 72.3926 156.128 72.3926ZM171.506 74.5745L166.665 87.6654H164.619L159.778 74.5745H161.96L165.574 85.0063H165.71L169.324 74.5745H171.506ZM179.18 87.9381C177.919 87.9381 176.831 87.6597 175.916 87.1029C175.007 86.5404 174.305 85.7563 173.811 84.7506C173.322 83.7392 173.078 82.5631 173.078 81.2222C173.078 79.8813 173.322 78.6995 173.811 77.6767C174.305 76.6483 174.993 75.8472 175.873 75.2733C176.76 74.6938 177.794 74.404 178.976 74.404C179.658 74.404 180.331 74.5176 180.996 74.7449C181.66 74.9722 182.265 75.3415 182.811 75.8529C183.356 76.3586 183.791 77.029 184.115 77.8642C184.439 78.6995 184.601 79.7279 184.601 80.9495V81.8017H174.51V80.0631H182.555C182.555 79.3245 182.408 78.6654 182.112 78.0858C181.822 77.5063 181.408 77.0489 180.868 76.7137C180.334 76.3784 179.703 76.2108 178.976 76.2108C178.175 76.2108 177.481 76.4097 176.896 76.8074C176.317 77.1995 175.871 77.7108 175.558 78.3415C175.246 78.9722 175.089 79.6483 175.089 80.3699V81.529C175.089 82.5176 175.26 83.3557 175.601 84.0432C175.947 84.725 176.427 85.2449 177.041 85.6029C177.655 85.9551 178.368 86.1313 179.18 86.1313C179.709 86.1313 180.186 86.0574 180.612 85.9097C181.044 85.7563 181.416 85.529 181.729 85.2279C182.041 84.9211 182.283 84.5404 182.453 84.0858L184.396 84.6313C184.192 85.2904 183.848 85.8699 183.365 86.3699C182.882 86.8642 182.285 87.2506 181.575 87.529C180.865 87.8017 180.067 87.9381 179.18 87.9381Z" fill="white"/>
<defs>
<linearGradient id="paint0_linear_1_162" x1="90.2872" y1="103.846" x2="203.423" y2="103.846" gradientUnits="userSpaceOnUse">
<stop stop-color="#FFD200"/>
<stop offset="1" stop-color="#EE0979"/>
</linearGradient>
</defs>
</svg>
