<svg width="157" height="136" viewBox="0 0 157 136" fill="none" xmlns="http://www.w3.org/2000/svg">
<path d="M24.8697 103.846C20.6357 94.7659 18.7596 84.7652 19.4148 74.7683C20.0701 64.7714 23.2355 55.1011 28.6184 46.6518C34.0014 38.2024 41.428 31.2467 50.2115 26.428C58.9949 21.6093 68.8517 19.0831 78.8702 19.0831C88.8887 19.0831 98.7454 21.6093 107.529 26.428C116.312 31.2467 123.739 38.2024 129.122 46.6518C134.505 55.1011 137.67 64.7714 138.326 74.7683C138.981 84.7652 137.105 94.7659 132.871 103.846" stroke="black" stroke-opacity="0.1" stroke-width="4.69654" stroke-linecap="round"/>
<path d="M24.8697 103.846C18.2294 89.6057 17.4827 73.3192 22.7922 58.5314C28.1016 43.7436 39.0374 31.6515 53.2191 24.8873C67.4008 18.1231 83.6803 17.2343 98.5141 22.4145C113.348 27.5946 125.535 38.4242 132.423 52.5461" stroke="url(#paint0_linear_1_163)" stroke-width="7.00976" stroke-linecap="round"/>
<path d="M46.7506 87.6654H44.5347L50.9437 70.2108H53.1256L59.5347 87.6654H57.3187L52.1028 72.9722H51.9665L46.7506 87.6654ZM47.5687 80.8472H56.5006V82.7222H47.5687V80.8472ZM67.2989 87.9381C66.0716 87.9381 65.0148 87.6483 64.1284 87.0688C63.242 86.4892 62.5602 85.6909 62.083 84.6739C61.6057 83.6569 61.367 82.4949 61.367 81.1881C61.367 79.8586 61.6114 78.6853 62.1 77.6682C62.5943 76.6455 63.2818 75.8472 64.1625 75.2733C65.0489 74.6938 66.083 74.404 67.2648 74.404C68.1852 74.404 69.0148 74.5745 69.7534 74.9154C70.492 75.2563 71.0972 75.7336 71.5687 76.3472C72.0403 76.9608 72.333 77.6767 72.4466 78.4949H70.4352C70.2818 77.8983 69.9409 77.3699 69.4125 76.9097C68.8898 76.4438 68.1852 76.2108 67.2989 76.2108C66.5148 76.2108 65.8273 76.4154 65.2364 76.8245C64.6511 77.2279 64.1937 77.7989 63.8642 78.5375C63.5403 79.2705 63.3784 80.1313 63.3784 81.1199C63.3784 82.1313 63.5375 83.012 63.8557 83.762C64.1795 84.512 64.6341 85.0944 65.2193 85.5091C65.8102 85.9239 66.5034 86.1313 67.2989 86.1313C67.8216 86.1313 68.296 86.0404 68.7222 85.8586C69.1483 85.6767 69.5091 85.4154 69.8045 85.0745C70.1 84.7336 70.3102 84.3245 70.4352 83.8472H72.4466C72.333 84.6199 72.0517 85.3159 71.6028 85.9353C71.1597 86.5489 70.5716 87.0375 69.8386 87.4012C69.1114 87.7591 68.2648 87.9381 67.2989 87.9381ZM81.0801 74.5745V76.279H74.296V74.5745H81.0801ZM76.2733 71.4381H78.2847V83.9154C78.2847 84.4836 78.367 84.9097 78.5318 85.1938C78.7023 85.4722 78.9182 85.6597 79.1795 85.7563C79.4466 85.8472 79.7278 85.8926 80.0233 85.8926C80.2449 85.8926 80.4267 85.8813 80.5687 85.8586C80.7108 85.8301 80.8244 85.8074 80.9097 85.7904L81.3187 87.5972C81.1824 87.6483 80.992 87.6995 80.7477 87.7506C80.5034 87.8074 80.1937 87.8358 79.8187 87.8358C79.2506 87.8358 78.6937 87.7137 78.1483 87.4694C77.6085 87.225 77.1597 86.8529 76.8017 86.3529C76.4494 85.8529 76.2733 85.2222 76.2733 84.4608V71.4381ZM84.1057 87.6654V74.5745H86.117V87.6654H84.1057ZM85.1284 72.3926C84.7364 72.3926 84.3983 72.2591 84.1142 71.9921C83.8358 71.725 83.6966 71.404 83.6966 71.029C83.6966 70.654 83.8358 70.333 84.1142 70.0659C84.3983 69.7989 84.7364 69.6654 85.1284 69.6654C85.5205 69.6654 85.8557 69.7989 86.1341 70.0659C86.4182 70.333 86.5602 70.654 86.5602 71.029C86.5602 71.404 86.4182 71.725 86.1341 71.9921C85.8557 72.2591 85.5205 72.3926 85.1284 72.3926ZM100.506 74.5745L95.6646 87.6654H93.6192L88.7783 74.5745H90.9601L94.5737 85.0063H94.7101L98.3237 74.5745H100.506ZM108.18 87.9381C106.919 87.9381 105.831 87.6597 104.916 87.1029C104.007 86.5404 103.305 85.7563 102.811 84.7506C102.322 83.7392 102.078 82.5631 102.078 81.2222C102.078 79.8813 102.322 78.6995 102.811 77.6767C103.305 76.6483 103.993 75.8472 104.873 75.2733C105.76 74.6938 106.794 74.404 107.976 74.404C108.658 74.404 109.331 74.5176 109.996 74.7449C110.66 74.9722 111.265 75.3415 111.811 75.8529C112.356 76.3586 112.791 77.029 113.115 77.8642C113.439 78.6995 113.601 79.7279 113.601 80.9495V81.8017H103.51V80.0631H111.555C111.555 79.3245 111.408 78.6654 111.112 78.0858C110.822 77.5063 110.408 77.0489 109.868 76.7137C109.334 76.3784 108.703 76.2108 107.976 76.2108C107.175 76.2108 106.481 76.4097 105.896 76.8074C105.317 77.1995 104.871 77.7108 104.558 78.3415C104.246 78.9722 104.089 79.6483 104.089 80.3699V81.529C104.089 82.5176 104.26 83.3557 104.601 84.0432C104.947 84.725 105.427 85.2449 106.041 85.6029C106.655 85.9551 107.368 86.1313 108.18 86.1313C108.709 86.1313 109.186 86.0574 109.612 85.9097C110.044 85.7563 110.416 85.529 110.729 85.2279C111.041 84.9211 111.283 84.5404 111.453 84.0858L113.396 84.6313C113.192 85.2904 112.848 85.8699 112.365 86.3699C111.882 86.8642 111.285 87.2506 110.575 87.529C109.865 87.8017 109.067 87.9381 108.18 87.9381Z" fill="white"/>
<defs>
<linearGradient id="paint0_linear_1_163" x1="19.2872" y1="103.846" x2="132.423" y2="103.846" gradientUnits="userSpaceOnUse">
<stop stop-color="#FFD200"/>
<stop offset="1" stop-color="#EE0979"/>
</linearGradient>
</defs>
</svg>
