<svg width="47" height="46" viewBox="0 0 47 46" fill="none" xmlns="http://www.w3.org/2000/svg">
<path d="M12.2622 41.4625H40.181V37.7109H12.3058C11.8696 37.7109 11.4406 37.5873 11.019 37.3401C10.5973 37.0929 10.3864 36.6058 10.3864 35.8788C10.3864 35.1226 10.5973 34.621 11.019 34.3738C11.4406 34.1266 11.8696 34.003 12.3058 34.003H40.181V7.96003C40.181 6.91307 39.8174 6.02607 39.0904 5.29902C38.3633 4.57197 37.4909 4.20844 36.473 4.20844H12.2622C11.128 4.20844 9.91384 4.63013 8.61969 5.47351C7.32554 6.31689 6.67847 7.75645 6.67847 9.79219V35.8788C6.67847 37.9145 7.32554 39.3541 8.61969 40.1975C9.91384 41.0408 11.128 41.4625 12.2622 41.4625ZM10.3864 15.3759V9.79219C10.3864 9.06514 10.5973 8.57802 11.019 8.33082C11.4406 8.08363 11.8551 7.96003 12.2622 7.96003H36.473V30.295H10.3864V15.3759ZM15.9702 11.668H32.7214V15.3759H15.9702V11.668Z" fill="#E12966"/>
</svg>
