<svg width="47" height="46" viewBox="0 0 47 46" fill="none" xmlns="http://www.w3.org/2000/svg">
<path d="M40.1809 20.9598H34.5972V7.96008C34.5972 7.43661 34.4154 6.99311 34.0519 6.62958C33.6883 6.26606 33.2448 6.08429 32.7214 6.08429H6.6784C6.15493 6.08429 5.71143 6.26606 5.3479 6.62958C4.98438 6.99311 4.80261 7.43661 4.80261 7.96008V34.003C4.80261 35.5444 5.3479 36.8604 6.43848 37.9509C7.52905 39.0415 8.84501 39.5868 10.3864 39.5868H36.4729C38.0143 39.5868 39.3303 39.0415 40.4208 37.9509C41.5114 36.8604 42.0567 35.5444 42.0567 34.003V22.8355C42.0567 22.3121 41.8749 21.8686 41.5114 21.505C41.1479 21.1415 40.7044 20.9598 40.1809 20.9598ZM10.3864 35.8788C9.89197 35.8788 9.46301 35.6971 9.09948 35.3335C8.73596 34.97 8.55419 34.5265 8.55419 34.003V9.79225H30.8892V34.003C30.8892 34.3229 30.911 34.6428 30.9546 34.9627C30.9983 35.2827 31.0782 35.588 31.1946 35.8788H10.3864ZM38.3051 34.003C38.3051 34.5265 38.1233 34.97 37.7598 35.3335C37.3963 35.6971 36.9673 35.8788 36.4729 35.8788C35.9495 35.8788 35.506 35.6971 35.1424 35.3335C34.7789 34.97 34.5972 34.5265 34.5972 34.003V24.7113H38.3051V34.003ZM12.2622 13.5438H27.1376V17.2518H12.2622V13.5438ZM12.2622 20.9598H27.1376V24.7113H12.2622V20.9598ZM21.5539 28.4193H27.1376V32.1273H21.5539V28.4193Z" fill="#E12966"/>
</svg>
