<svg width="25" height="24" viewBox="0 0 25 24" fill="none" xmlns="http://www.w3.org/2000/svg">
<path d="M12.1504 21.9844C13.2285 21.9844 14.166 21.0938 14.166 20.0156H10.1348C10.1348 21.0938 11.0723 21.9844 12.1504 21.9844ZM18.1504 15.9844V11.0156C18.1504 7.92188 16.5098 5.34375 13.6504 4.6875V3.98438C13.6504 3.1875 12.9941 2.48438 12.1504 2.48438C11.3066 2.48438 10.6504 3.1875 10.6504 3.98438V4.6875C7.79102 5.34375 6.15039 7.92188 6.15039 11.0156V15.9844L4.13477 18V18.9844H20.166V18L18.1504 15.9844ZM16.1348 17.0156H8.16602V11.0156C8.16602 8.53125 9.66602 6.51562 12.1504 6.51562C14.6348 6.51562 16.1348 8.53125 16.1348 11.0156V17.0156Z" fill="#DEE2E6"/>
</svg>
