<svg width="25" height="25" viewBox="0 0 25 25" fill="none" xmlns="http://www.w3.org/2000/svg">
<path d="M15.8359 14.5206H15.0391L14.7578 14.2394C15.7422 13.1144 16.3047 11.6144 16.3047 10.0206C16.3047 6.41125 13.3984 3.505 9.83594 3.505C6.22656 3.505 3.32031 6.41125 3.32031 10.0206C3.32031 13.5831 6.22656 16.4894 9.83594 16.4894C11.4297 16.4894 12.9297 15.9269 14.0547 14.9425L14.3359 15.2238V16.0206L19.3047 20.9894L20.8047 19.4894L15.8359 14.5206ZM9.83594 14.5206C7.35156 14.5206 5.33594 12.505 5.33594 10.0206C5.33594 7.53625 7.35156 5.52063 9.83594 5.52063C12.3203 5.52063 14.3359 7.53625 14.3359 10.0206C14.3359 12.505 12.3203 14.5206 9.83594 14.5206Z" fill="#D3D7DC"/>
</svg>
