<svg width="25" height="25" viewBox="0 0 25 25" fill="none" xmlns="http://www.w3.org/2000/svg">
<path d="M18.3203 8.98572H17.3359V6.97009C17.3359 4.20447 15.0859 1.95447 12.3203 1.95447C9.55469 1.95447 7.30469 4.20447 7.30469 6.97009V8.98572H6.32031C5.24219 8.98572 4.30469 9.87634 4.30469 10.9545V20.9857C4.30469 22.0638 5.24219 22.9545 6.32031 22.9545H18.3203C19.3984 22.9545 20.3359 22.0638 20.3359 20.9857V10.9545C20.3359 9.87634 19.3984 8.98572 18.3203 8.98572ZM9.32031 6.97009C9.32031 5.32947 10.6797 3.97009 12.3203 3.97009C13.9609 3.97009 15.3203 5.32947 15.3203 6.97009V8.98572H9.32031V6.97009ZM18.3203 20.9857H6.32031V10.9545H18.3203V20.9857ZM12.3203 17.9857C13.3984 17.9857 14.3359 17.0482 14.3359 15.9701C14.3359 14.892 13.3984 13.9545 12.3203 13.9545C11.2422 13.9545 10.3047 14.892 10.3047 15.9701C10.3047 17.0482 11.2422 17.9857 12.3203 17.9857Z" fill="#A7ACB1"/>
</svg>
