<svg width="25" height="25" viewBox="0 0 25 25" fill="none" xmlns="http://www.w3.org/2000/svg">
<path d="M18.3203 6.32001H16.3047C16.3047 4.11688 14.5234 2.33563 12.3203 2.33563C10.1172 2.33563 8.33594 4.11688 8.33594 6.32001H6.32031C5.24219 6.32001 4.30469 7.21063 4.30469 8.33563V20.3356C4.30469 21.4138 5.24219 22.3044 6.32031 22.3044H18.3203C19.3984 22.3044 20.3359 21.4138 20.3359 20.3356V8.33563C20.3359 7.21063 19.3984 6.32001 18.3203 6.32001ZM12.3203 4.30438C13.3984 4.30438 14.3359 5.24188 14.3359 6.32001H10.3047C10.3047 5.24188 11.2422 4.30438 12.3203 4.30438ZM18.3203 20.3356H6.32031V8.33563H8.33594V10.3044C8.33594 10.8669 8.75781 11.3356 9.32031 11.3356C9.88281 11.3356 10.3047 10.8669 10.3047 10.3044V8.33563H14.3359V10.3044C14.3359 10.8669 14.7578 11.3356 15.3203 11.3356C15.8828 11.3356 16.3047 10.8669 16.3047 10.3044V8.33563H18.3203V20.3356Z" fill="#A7ACB1"/>
</svg>
