<svg width="25" height="25" viewBox="0 0 25 25" fill="none" xmlns="http://www.w3.org/2000/svg">
<path d="M11.3359 18.2902H13.3047V16.2745H11.3359V18.2902ZM12.3203 2.30579C6.78906 2.30579 2.33594 6.75891 2.33594 12.2902C2.33594 17.8214 6.78906 22.2745 12.3203 22.2745C17.8516 22.2745 22.3047 17.8214 22.3047 12.2902C22.3047 6.75891 17.8516 2.30579 12.3203 2.30579ZM12.3203 20.3058C7.91406 20.3058 4.30469 16.6964 4.30469 12.2902C4.30469 7.88391 7.91406 4.27454 12.3203 4.27454C16.7266 4.27454 20.3359 7.88391 20.3359 12.2902C20.3359 16.6964 16.7266 20.3058 12.3203 20.3058ZM12.3203 6.29016C10.1172 6.29016 8.33594 8.07141 8.33594 10.2745H10.3047C10.3047 9.19641 11.2422 8.30579 12.3203 8.30579C13.3984 8.30579 14.3359 9.19641 14.3359 10.2745C14.3359 12.2902 11.3359 12.0558 11.3359 15.2902H13.3047C13.3047 13.0402 16.3047 12.8058 16.3047 10.2745C16.3047 8.07141 14.5234 6.29016 12.3203 6.29016Z" fill="#A7ACB1"/>
</svg>
