<svg width="25" height="25" viewBox="0 0 25 25" fill="none" xmlns="http://www.w3.org/2000/svg">
<path d="M14.3359 12.6401L12.3203 14.6557L10.3047 12.6401L12.3203 10.6245L14.3359 12.6401ZM12.3203 6.64008L14.4297 8.74945L16.9609 6.26508L12.3203 1.62445L7.67969 6.26508L10.2109 8.74945L12.3203 6.64008ZM6.32031 12.6401L8.42969 10.5307L5.94531 7.99945L1.30469 12.6401L5.94531 17.2807L8.42969 14.7495L6.32031 12.6401ZM18.3203 12.6401L16.2109 14.7495L18.6953 17.2807L23.3359 12.6401L18.6953 7.99945L16.2109 10.5307L18.3203 12.6401ZM12.3203 18.6401L10.2109 16.5307L7.67969 19.0151L12.3203 23.6557L16.9609 19.0151L14.4297 16.5307L12.3203 18.6401Z" fill="#A7ACB1"/>
</svg>
