<svg width="25" height="25" viewBox="0 0 25 25" fill="none" xmlns="http://www.w3.org/2000/svg">
<path d="M9.32031 12.6301C9.32031 9.44263 10.6797 6.91138 12.3203 6.91138C13.9609 6.91138 15.3203 9.44263 15.3203 12.6301C15.3203 15.8176 13.9609 18.3489 12.3203 18.3489C10.6797 18.3489 9.32031 15.8176 9.32031 12.6301ZM16.8203 12.6301C16.8203 13.6145 16.5859 16.802 13.7734 19.1458C14.5703 19.427 15.4141 19.6145 16.3047 19.6145C20.1953 19.6145 23.3359 16.4739 23.3359 12.6301C23.3359 8.78638 20.1953 5.64575 16.3047 5.64575C15.4141 5.64575 14.5703 5.83325 13.7734 6.1145C16.5859 8.45825 16.8203 11.6458 16.8203 12.6301ZM8.33594 19.6145C9.22656 19.6145 10.0703 19.427 10.8672 19.1458C10.2578 18.6301 9.74219 18.0676 9.36719 17.5051C9.03906 17.5989 8.66406 17.6458 8.33594 17.6458C5.57031 17.6458 3.32031 15.3958 3.32031 12.6301C3.32031 9.8645 5.57031 7.6145 8.33594 7.6145C8.66406 7.6145 9.03906 7.66138 9.36719 7.75513C9.74219 7.19263 10.2578 6.63013 10.8672 6.1145C10.0703 5.83325 9.22656 5.64575 8.33594 5.64575C4.44531 5.64575 1.30469 8.78638 1.30469 12.6301C1.30469 16.4739 4.44531 19.6145 8.33594 19.6145Z" fill="#A7ACB1"/>
</svg>
