<svg width="25" height="25" viewBox="0 0 25 25" fill="none" xmlns="http://www.w3.org/2000/svg">
<path d="M12.3203 6.30011C13.3984 6.30011 14.3359 7.19073 14.3359 8.31573C14.3359 9.39386 13.3984 10.2845 12.3203 10.2845C11.2422 10.2845 10.3047 9.39386 10.3047 8.31573C10.3047 7.19073 11.2422 6.30011 12.3203 6.30011ZM12.3203 16.2845C15.0391 16.2845 18.1328 17.597 18.3203 18.3001H6.32031C6.55469 17.597 9.64844 16.2845 12.3203 16.2845ZM12.3203 4.28448C10.1172 4.28448 8.33594 6.11261 8.33594 8.31573C8.33594 10.5189 10.1172 12.3001 12.3203 12.3001C14.5234 12.3001 16.3047 10.5189 16.3047 8.31573C16.3047 6.11261 14.5234 4.28448 12.3203 4.28448ZM12.3203 14.3157C9.64844 14.3157 4.30469 15.6282 4.30469 18.3001V20.3157H20.3359V18.3001C20.3359 15.6282 14.9922 14.3157 12.3203 14.3157Z" fill="#A7ACB1"/>
</svg>
